<?xml version="1.0" standalone="no"?>
<!DOCTYPE svg PUBLIC "-//W3C//DTD SVG 20010904//EN"
 "http://www.w3.org/TR/2001/REC-SVG-20010904/DTD/svg10.dtd">
<svg version="1.0" xmlns="http://www.w3.org/2000/svg"
 width="512.000000pt" height="512.000000pt" viewBox="0 0 512.000000 512.000000"
 preserveAspectRatio="xMidYMid meet">

<g transform="translate(0.000000,512.000000) scale(0.100000,-0.100000)"
fill="#000000" stroke="none">
<path d="M1045 5114 c-11 -3 -56 -12 -100 -20 -349 -67 -661 -305 -822 -629
-103 -205 -142 -455 -109 -683 40 -270 154 -491 349 -679 103 -99 180 -151
316 -216 58 -27 107 -51 108 -52 1 0 -2 -18 -8 -38 -7 -26 -22 -45 -52 -66
-68 -46 -199 -180 -263 -266 -268 -364 -323 -842 -145 -1260 23 -52 41 -98 41
-102 0 -5 -34 -30 -75 -56 -90 -59 -258 -215 -275 -257 -19 -46 -5 -95 36
-126 56 -43 88 -32 198 73 50 48 123 110 162 136 l70 48 112 -112 111 -112
-27 -20 c-54 -40 -269 -264 -324 -338 -94 -126 -128 -188 -128 -237 0 -71 62
-115 133 -96 25 7 44 27 84 88 111 167 213 283 356 402 48 41 95 74 103 74 8
0 33 -9 54 -20 57 -29 162 -66 260 -91 75 -19 123 -22 420 -28 227 -5 344 -11
364 -19 16 -7 72 -57 125 -110 56 -57 118 -109 148 -125 166 -88 421 -88 586
0 30 16 94 70 153 129 126 127 114 124 470 124 146 0 298 5 337 11 104 16 241
55 327 95 42 20 84 33 95 30 30 -8 230 -191 303 -276 35 -41 91 -118 126 -170
78 -118 125 -144 186 -104 40 27 50 45 50 88 0 81 -126 255 -329 455 l-146
143 109 109 108 109 72 -50 c39 -27 113 -88 164 -135 110 -104 145 -115 200
-68 48 41 54 90 16 144 -41 59 -176 182 -261 237 -48 31 -72 52 -69 62 2 8 23
60 46 115 64 155 90 297 98 545 2 49 -28 204 -60 315 -65 219 -222 454 -405
603 -71 59 -96 85 -103 111 -5 19 -8 36 -7 36 1 1 50 25 108 52 137 65 215
118 312 212 416 402 484 1006 169 1496 -61 95 -220 255 -317 320 -217 144
-411 201 -675 199 -138 -1 -167 -5 -270 -32 -349 -92 -614 -310 -769 -632 -23
-46 -49 -111 -58 -143 l-16 -58 -66 7 c-85 9 -297 9 -382 0 l-66 -7 -12 48
c-7 26 -32 90 -57 142 -96 204 -227 358 -401 474 -201 135 -391 195 -628 202
-77 2 -149 2 -160 -1z m231 -214 c332 -35 628 -248 769 -554 18 -39 36 -87 40
-106 l6 -35 -115 -39 c-487 -164 -904 -557 -1097 -1033 -18 -46 -38 -83 -43
-83 -20 0 -140 61 -206 105 -85 57 -208 185 -271 283 -110 173 -163 404 -139
610 47 390 306 701 680 816 134 41 235 51 376 36z m2779 -1 c554 -68 933 -581
834 -1129 -19 -102 -69 -236 -120 -318 -62 -102 -190 -238 -278 -296 -67 -45
-186 -106 -207 -106 -5 0 -25 37 -43 83 -193 476 -609 869 -1096 1033 -90 31
-115 43 -115 57 0 33 61 166 112 245 176 269 459 426 793 441 17 0 71 -4 120
-10z m-1232 -869 c654 -112 1176 -620 1309 -1275 11 -55 27 -108 37 -119 9
-10 48 -42 86 -71 187 -140 320 -326 389 -543 14 -46 24 -87 21 -91 -2 -5 -35
-11 -73 -14 -144 -14 -313 -76 -667 -245 -248 -119 -383 -167 -512 -185 -158
-21 -314 24 -403 116 -126 131 -178 290 -215 665 -20 196 -35 276 -74 381 -75
204 -202 326 -467 447 -91 41 -191 105 -257 164 -74 66 -210 230 -335 408
l-52 72 72 47 c209 135 419 213 688 256 81 13 346 6 453 -13z m-1302 -532 c97
-137 253 -321 331 -392 90 -83 151 -122 338 -217 191 -97 255 -151 308 -259
45 -92 60 -160 82 -366 24 -231 35 -298 65 -410 103 -380 314 -567 655 -581
213 -9 348 32 791 240 135 64 280 128 322 142 87 29 205 55 249 55 l31 0 -6
-92 c-4 -51 -18 -136 -32 -188 -29 -109 -90 -244 -105 -235 -5 3 -47 17 -93
30 -294 85 -640 79 -967 -17 -138 -41 -166 -55 -185 -94 -21 -44 -19 -65 8
-105 20 -30 34 -37 122 -61 165 -45 303 -96 445 -165 l135 -66 -40 -18 c-96
-42 -177 -51 -525 -58 -359 -8 -369 -9 -466 -66 -23 -13 -76 -62 -117 -108
-87 -95 -136 -124 -238 -140 -84 -13 -189 2 -257 35 -25 13 -75 57 -119 105
-76 85 -122 118 -203 150 -38 14 -97 18 -380 23 -319 6 -340 8 -432 33 -151
40 -151 36 2 110 141 69 276 119 445 165 88 24 102 31 122 61 27 40 29 73 6
111 -20 34 -56 51 -191 90 -123 35 -235 55 -394 71 -189 18 -434 -10 -612 -69
l-58 -20 -33 71 c-66 143 -95 279 -95 443 0 221 59 413 185 604 46 69 192 215
291 290 l59 45 21 103 c61 293 187 547 379 765 43 48 79 87 80 87 2 0 36 -46
76 -102z m-223 -2435 c21 -8 18 -11 -35 -33 -81 -33 -218 -101 -306 -153 l-74
-45 -34 26 c-42 31 -159 144 -159 153 0 10 163 49 246 59 82 10 329 5 362 -7z
m2932 -4 c92 -14 200 -41 200 -49 0 -10 -153 -156 -177 -168 -14 -8 -32 -2
-83 29 -78 48 -233 127 -312 159 -32 13 -55 26 -52 29 7 7 224 17 299 13 33
-2 89 -7 125 -13z"/>
</g>
</svg>
